<svg width="160" height="48" viewBox="0 0 160 48" fill="none" xmlns="http://www.w3.org/2000/svg">
<path d="M25.2302 0.411774V10.51H32.0858V35.8255H44.9944V0.411774H25.2302Z" fill="#CC2127"/>
<path d="M12.3203 10.51V20.6831H19.1759V35.8255H25.2301V10.51H12.3203Z" fill="#91BB3E"/>
<path d="M32.0846 10.51H25.2302V35.8243H32.0846V10.51Z" fill="#CC2127"/>
<path d="M32.0846 10.51H25.2302V35.8243H32.0846V10.51Z" fill="#801517"/>
<path d="M12.3203 20.6831H0V35.8255H12.3203V20.6831Z" fill="#065FAA"/>
<path d="M19.1746 20.6831H12.3203V35.8255H19.1746V20.6831Z" fill="#1D305F"/>
<path d="M97.2579 8.00107C97.2579 6.0121 97.6255 4.54687 98.3633 3.60663C99.1023 2.66639 100.319 2.05785 102.016 1.78226V0.0314636H85.3887V1.78226C87.0848 2.05785 88.3024 2.66514 89.0414 3.60663C89.7779 4.54812 90.1481 6.01335 90.1481 8.00107V27.8497C90.1481 29.8386 89.7779 31.3039 89.0414 32.2441C88.3024 33.1856 87.0861 33.7941 85.3887 34.0685V35.8193H102.016V34.0685C100.32 33.7941 99.1023 33.1856 98.3633 32.2441C97.6255 31.3026 97.2579 29.8374 97.2579 27.8497V8.00107Z" fill="#404041"/>
<path d="M131.715 0.0314636V1.78226C133.43 2.05785 134.659 2.66514 135.405 3.60663C136.151 4.54812 136.523 6.01335 136.523 8.00108L136.53 20.7891L116.176 0.0663802L106.175 0.0314636V1.73612C106.91 1.88451 107.548 2.17008 108.088 2.59406C108.63 3.01679 109.614 3.98946 111.044 5.51205V27.8509C111.044 29.8399 110.67 31.3051 109.926 32.2454C109.179 33.1868 107.951 33.7954 106.236 34.0697V35.8205H120.984V34.0697C119.269 33.7954 118.04 33.1868 117.294 32.2454C116.549 31.3039 116.177 29.8386 116.177 27.8509V11.353L139.502 35.8193H141.657V8.00108C141.657 6.0121 142.029 4.54687 142.773 3.60663C143.52 2.66639 144.748 2.05785 146.462 1.78226V0.0314636H131.715Z" fill="#404041"/>
<path d="M74.2448 16.9097V16.7825C79.6498 15.2175 82.3541 12.2346 82.3541 7.83521C82.3541 5.00076 81.2462 2.80604 79.0329 1.25102C76.8196 -0.303996 73.7439 0.0302016 69.8057 0.0302016H51.0859V1.781C52.7933 2.05659 54.0171 2.66388 54.7586 3.60537C55.5001 4.54685 55.8715 6.01209 55.8715 7.99981V27.8484C55.8715 29.8374 55.5001 31.3026 54.7586 32.2428C54.0158 33.1843 52.792 33.7929 51.0859 34.0672V35.818H72.5487C76.2027 35.818 79.1264 36.0088 81.3198 34.1695C83.5119 32.3289 84.6086 29.9172 84.6086 26.9343C84.6086 21.5635 81.1528 18.2215 74.2448 16.9097ZM63.1795 1.78224L65.5573 1.76728C70.9224 1.76728 73.6055 3.60537 73.6055 8.66073C73.6055 11.0712 72.945 12.6287 71.624 13.9829C70.3017 15.3372 68.4735 16.0131 66.1368 16.0131H63.1795V1.78224ZM73.8934 31.9922C72.5824 33.42 70.779 34.1333 68.4822 34.1333C66.5717 34.1333 65.2108 33.7804 64.3983 33.0709C63.5845 32.3626 63.1782 31.1629 63.1782 29.4683V18.8163H67.5064C70.1285 18.8163 72.1748 19.2154 73.6491 20.7168C75.1222 22.2194 75.8587 24.2184 75.8587 26.7136C75.86 29.2313 75.2045 30.5644 73.8934 31.9922Z" fill="#404041"/>
<path d="M56.8025 43.6854L56.8125 43.7141C56.8249 44.461 56.5981 45.0446 56.1308 45.4661C55.6634 45.8901 55.0179 46.1008 54.1954 46.1008C53.3567 46.1008 52.6799 45.8315 52.1653 45.2928C51.6506 44.7541 51.3926 44.0557 51.3926 43.199V41.8111C51.3926 40.9582 51.6443 40.2623 52.1466 39.7199C52.6488 39.1762 53.3081 38.9044 54.1243 38.9044C54.9768 38.9044 55.6423 39.1139 56.1221 39.5304C56.6019 39.9456 56.8362 40.5329 56.8225 41.2874L56.8137 41.3161H55.4503C55.4503 40.8684 55.3432 40.5342 55.1263 40.3135C54.9107 40.0952 54.5767 39.9843 54.1256 39.9843C53.7068 39.9843 53.3791 40.1539 53.1435 40.4905C52.9093 40.8285 52.7909 41.2662 52.7909 41.7999V43.1978C52.7909 43.7365 52.9155 44.1742 53.1622 44.5146C53.4102 44.8538 53.7555 45.0234 54.1966 45.0234C54.6166 45.0234 54.9294 44.9137 55.135 44.6942C55.3419 44.4747 55.4454 44.1393 55.4454 43.6829H56.8025V43.6854Z" fill="#404041"/>
<path d="M58.2805 43.3537C58.2805 42.5793 58.4961 41.9445 58.9286 41.4507C59.361 40.9557 59.9592 40.7075 60.7244 40.7075C61.4933 40.7075 62.094 40.9532 62.5302 41.447C62.9651 41.9408 63.1832 42.5755 63.1832 43.3537V43.4559C63.1832 44.2365 62.9664 44.8738 62.5327 45.3651C62.099 45.8564 61.4996 46.1021 60.7356 46.1021C59.9667 46.1021 59.366 45.8564 58.9323 45.3651C58.4986 44.8725 58.2818 44.2365 58.2818 43.4559V43.3537H58.2805ZM59.6776 43.4559C59.6776 43.9298 59.7598 44.3101 59.9268 44.5969C60.0926 44.8825 60.3617 45.0259 60.7331 45.0259C61.0945 45.0259 61.3587 44.8825 61.5282 44.5944C61.6965 44.3051 61.78 43.9273 61.78 43.4559V43.3537C61.78 42.8935 61.6952 42.5169 61.5257 42.2251C61.3562 41.9346 61.0883 41.7887 60.7232 41.7887C60.3605 41.7887 60.0963 41.9346 59.9281 42.2276C59.7598 42.5207 59.6763 42.8973 59.6763 43.3537V43.4559H59.6776Z" fill="#404041"/>
<path d="M67.5638 42.0081L67.0503 41.9932C66.8422 41.9932 66.6715 42.0368 66.5369 42.1229C66.4023 42.2089 66.3001 42.3311 66.2291 42.4882V45.9986H64.832V40.801H66.1331L66.1954 41.5692C66.3176 41.2973 66.4746 41.0853 66.6677 40.932C66.8609 40.7811 67.084 40.7038 67.3382 40.7038C67.408 40.7038 67.4728 40.7088 67.5326 40.72C67.5925 40.7324 67.6523 40.7462 67.7133 40.7624L67.5638 42.0081Z" fill="#404041"/>
<path d="M73.7662 43.547C73.7662 44.3139 73.588 44.9324 73.2328 45.4C72.8776 45.8676 72.3816 46.1021 71.7448 46.1021C71.4731 46.1021 71.2313 46.0522 71.0195 45.9512C70.8076 45.8502 70.6282 45.7018 70.4774 45.5072V48H69.0803V40.8035H70.3428L70.4238 41.4171C70.5771 41.1901 70.7615 41.0155 70.9783 40.8921C71.1952 40.7686 71.4457 40.7075 71.7336 40.7075C72.3779 40.7075 72.8764 40.9594 73.2316 41.4607C73.5867 41.9645 73.7649 42.6267 73.7649 43.4459V43.547H73.7662ZM72.3642 43.4459C72.3642 42.9546 72.2832 42.5581 72.1199 42.2538C71.9566 41.9495 71.7062 41.7974 71.3709 41.7974C71.1603 41.7974 70.9796 41.841 70.83 41.9271C70.6817 42.0131 70.5634 42.1378 70.4774 42.2975V44.5745C70.5634 44.7204 70.6817 44.8339 70.83 44.9112C70.9796 44.9885 71.1628 45.0259 71.3796 45.0259C71.7186 45.0259 71.9679 44.8937 72.1261 44.6281C72.2844 44.3625 72.3629 44.0009 72.3629 43.5482V43.4459H72.3642Z" fill="#404041"/>
<path d="M75.2019 43.3537C75.2019 42.5793 75.4175 41.9445 75.85 41.4507C76.2824 40.9557 76.8806 40.7075 77.6458 40.7075C78.4147 40.7075 79.0154 40.9532 79.4516 41.447C79.8865 41.9408 80.1046 42.5755 80.1046 43.3537V43.4559C80.1046 44.2365 79.8878 44.8738 79.4541 45.3651C79.0204 45.8564 78.421 46.1021 77.6558 46.1021C76.8881 46.1021 76.2874 45.8564 75.8537 45.3651C75.42 44.8725 75.2031 44.2365 75.2031 43.4559V43.3537H75.2019ZM76.5977 43.4559C76.5977 43.9298 76.6812 44.3101 76.8469 44.5969C77.0139 44.8825 77.2831 45.0259 77.6533 45.0259C78.0147 45.0259 78.2801 44.8825 78.4484 44.5944C78.6166 44.3051 78.7014 43.9273 78.7014 43.4559V43.3537C78.7014 42.8935 78.6154 42.5169 78.4459 42.2251C78.2764 41.9346 78.0084 41.7887 77.6433 41.7887C77.2819 41.7887 77.0164 41.9346 76.8482 42.2276C76.6799 42.5207 76.5965 42.8973 76.5965 43.3537V43.4559H76.5977Z" fill="#404041"/>
<path d="M84.4852 42.0081L83.9705 41.9932C83.7636 41.9932 83.5916 42.0368 83.4583 42.1229C83.3237 42.2089 83.2215 42.3311 83.1517 42.4882V45.9986H81.7534V40.801H83.0557L83.1181 41.5692C83.2402 41.2973 83.3972 41.0853 83.5904 40.932C83.7835 40.7811 84.0079 40.7038 84.2609 40.7038C84.3319 40.7038 84.3955 40.7088 84.454 40.72C84.5138 40.7324 84.5749 40.7462 84.6347 40.7624L84.4852 42.0081Z" fill="#404041"/>
<path d="M89.0652 46.0011C89.0141 45.8826 88.9705 45.7579 88.9344 45.627C88.897 45.4948 88.8696 45.3601 88.8546 45.2229C88.7113 45.4761 88.5194 45.6868 88.2838 45.8527C88.0471 46.0198 87.7654 46.1021 87.4389 46.1021C86.8943 46.1021 86.4755 45.9624 86.1802 45.6806C85.8861 45.4012 85.739 45.0197 85.739 44.5371C85.739 44.027 85.9347 43.6305 86.3272 43.3524C86.7186 43.0718 87.2918 42.9322 88.0433 42.9322H88.8322V42.5182C88.8322 42.2688 88.7649 42.0755 88.6353 41.9371C88.5044 41.7999 88.3088 41.7301 88.0495 41.7301C87.8215 41.7301 87.6458 41.7862 87.5236 41.8972C87.399 42.0069 87.3392 42.159 87.3392 42.3498H85.9908L85.9795 42.3224C85.9571 41.8822 86.149 41.5044 86.5541 41.1851C86.9578 40.8671 87.4875 40.7075 88.1405 40.7075C88.7649 40.7075 89.2684 40.8646 89.6547 41.1789C90.041 41.4919 90.233 41.9421 90.233 42.5282V44.6755C90.233 44.9199 90.2517 45.1481 90.289 45.3626C90.3252 45.5783 90.385 45.7903 90.4648 46.0023H89.0652V46.0011ZM87.7841 45.0646C88.0259 45.0646 88.244 45.0035 88.4359 44.8825C88.6278 44.7615 88.7599 44.6194 88.8297 44.4598V43.724H88.0408C87.7442 43.724 87.5186 43.7988 87.3666 43.946C87.2158 44.0931 87.1385 44.2752 87.1385 44.4897C87.1385 44.6655 87.1959 44.8052 87.3093 44.9099C87.4252 45.0122 87.5822 45.0646 87.7841 45.0646Z" fill="#404041"/>
<path d="M93.751 39.5303V40.8023H94.6296V41.7887H93.751V44.4348C93.751 44.6368 93.7933 44.7802 93.8781 44.8675C93.9628 44.9548 94.0738 44.9972 94.2121 44.9972C94.2869 44.9972 94.3492 44.9922 94.404 44.9847C94.4588 44.976 94.5211 44.9623 94.5909 44.9436L94.7068 45.9574C94.566 46.0048 94.4289 46.0409 94.2956 46.0646C94.1635 46.0896 94.0189 46.1008 93.8606 46.1008C93.3783 46.1008 93.0045 45.9686 92.744 45.703C92.4835 45.4361 92.3539 45.0159 92.3539 44.4385V41.7874H91.595V40.801H92.3539V39.5291H93.751V39.5303Z" fill="#404041"/>
<path d="M97.7549 39.559H96.3521V38.5066H97.7549V39.559ZM97.7549 46.0011H96.3521V40.8035H97.7549V46.0011Z" fill="#404041"/>
<path d="M99.4775 43.3537C99.4775 42.5793 99.6931 41.9445 100.126 41.4507C100.558 40.9557 101.155 40.7075 101.92 40.7075C102.689 40.7075 103.291 40.9532 103.725 41.447C104.161 41.9408 104.378 42.5755 104.378 43.3537V43.4559C104.378 44.2365 104.161 44.8738 103.727 45.3651C103.294 45.8564 102.695 46.1021 101.93 46.1021C101.162 46.1021 100.561 45.8564 100.128 45.3651C99.6944 44.8725 99.4788 44.2365 99.4788 43.4559V43.3537H99.4775ZM100.875 43.4559C100.875 43.9298 100.956 44.3101 101.124 44.5969C101.29 44.8825 101.559 45.0259 101.929 45.0259C102.29 45.0259 102.556 44.8825 102.724 44.5944C102.892 44.3051 102.976 43.9273 102.976 43.4559V43.3537C102.976 42.8935 102.891 42.5169 102.721 42.2251C102.552 41.9346 102.284 41.7887 101.919 41.7887C101.558 41.7887 101.293 41.9346 101.125 42.2276C100.957 42.5207 100.873 42.8973 100.873 43.3537V43.4559H100.875Z" fill="#404041"/>
<path d="M107.311 40.8035L107.374 41.548C107.547 41.2824 107.761 41.0754 108.013 40.9295C108.266 40.7811 108.55 40.7075 108.864 40.7075C109.389 40.7075 109.799 40.8771 110.092 41.2138C110.386 41.5517 110.533 42.0855 110.533 42.815V46.0011H109.127V42.8212C109.127 42.4496 109.061 42.1852 108.933 42.0306C108.803 41.8747 108.609 41.7962 108.348 41.7962C108.14 41.7962 107.958 41.8361 107.799 41.9146C107.642 41.9932 107.511 42.1004 107.409 42.2388V46.0011H106.005V40.8035H107.311Z" fill="#404041"/>
<path d="M121.065 45.0459C120.847 45.3314 120.522 45.5783 120.092 45.7866C119.658 45.9973 119.102 46.1021 118.42 46.1021C117.574 46.1021 116.884 45.8352 116.345 45.304C115.807 44.7728 115.54 44.0832 115.54 43.234V41.7737C115.54 40.9282 115.801 40.2387 116.323 39.7049C116.844 39.1725 117.514 38.9044 118.333 38.9044C119.188 38.9044 119.842 39.1076 120.297 39.5129C120.751 39.9169 120.971 40.4581 120.954 41.134L120.944 41.1627H119.624C119.624 40.7898 119.517 40.503 119.301 40.296C119.087 40.089 118.776 39.9855 118.366 39.9855C117.936 39.9855 117.592 40.1526 117.329 40.4818C117.067 40.8148 116.935 41.24 116.935 41.7625V43.2327C116.935 43.7614 117.069 44.1929 117.339 44.5246C117.608 44.8588 117.967 45.0234 118.419 45.0234C118.752 45.0234 119.015 44.991 119.208 44.9224C119.402 44.8551 119.551 44.7715 119.657 44.668V43.3163H118.313V42.3448H121.064V45.0459H121.065Z" fill="#404041"/>
<path d="M125.669 42.0081L125.154 41.9932C124.946 41.9932 124.774 42.0368 124.64 42.1229C124.507 42.2089 124.404 42.3311 124.334 42.4882V45.9986H122.937V40.801H124.238L124.3 41.5692C124.422 41.2973 124.581 41.0853 124.774 40.932C124.967 40.7811 125.19 40.7038 125.444 40.7038C125.513 40.7038 125.578 40.7088 125.636 40.72C125.696 40.7324 125.757 40.7462 125.818 40.7624L125.669 42.0081Z" fill="#404041"/>
<path d="M126.872 43.3537C126.872 42.5793 127.089 41.9445 127.522 41.4507C127.953 40.9557 128.551 40.7075 129.316 40.7075C130.085 40.7075 130.687 40.9532 131.121 41.447C131.558 41.9408 131.774 42.5755 131.774 43.3537V43.4559C131.774 44.2365 131.557 44.8738 131.124 45.3651C130.69 45.8564 130.091 46.1021 129.326 46.1021C128.558 46.1021 127.958 45.8564 127.525 45.3651C127.089 44.8725 126.874 44.2365 126.874 43.4559V43.3537H126.872ZM128.269 43.4559C128.269 43.9298 128.353 44.3101 128.52 44.5969C128.686 44.8825 128.955 45.0259 129.325 45.0259C129.686 45.0259 129.952 44.8825 130.12 44.5944C130.288 44.3051 130.372 43.9273 130.372 43.4559V43.3537C130.372 42.8935 130.287 42.5169 130.118 42.2251C129.948 41.9346 129.68 41.7887 129.315 41.7887C128.954 41.7887 128.688 41.9346 128.52 42.2276C128.352 42.5207 128.268 42.8973 128.268 43.3537V43.4559H128.269Z" fill="#404041"/>
<path d="M136.609 45.2316C136.45 45.511 136.245 45.7255 136 45.8751C135.753 46.026 135.468 46.1021 135.141 46.1021C134.594 46.1021 134.165 45.9175 133.856 45.5459C133.549 45.1743 133.394 44.5969 133.394 43.8163V40.8035H134.791V43.825C134.791 44.2789 134.852 44.5907 134.976 44.7603C135.099 44.9274 135.29 45.0109 135.549 45.0109C135.773 45.0109 135.965 44.976 136.125 44.9024C136.285 44.8314 136.416 44.7241 136.518 44.5832V40.8035H137.92V46.0011H136.758L136.609 45.2316Z" fill="#404041"/>
<path d="M144.448 43.547C144.448 44.3139 144.27 44.9324 143.916 45.4C143.561 45.8676 143.063 46.1021 142.427 46.1021C142.155 46.1021 141.914 46.0522 141.703 45.9512C141.492 45.8502 141.311 45.7018 141.159 45.5072V48H139.763V40.8035H141.025L141.107 41.4171C141.26 41.1901 141.445 41.0155 141.66 40.8921C141.877 40.7686 142.129 40.7075 142.417 40.7075C143.06 40.7075 143.559 40.9594 143.915 41.4607C144.269 41.9645 144.447 42.6267 144.447 43.4459V43.547H144.448ZM143.046 43.4459C143.046 42.9546 142.965 42.5581 142.802 42.2538C142.639 41.9495 142.389 41.7974 142.053 41.7974C141.841 41.7974 141.661 41.841 141.512 41.9271C141.362 42.0131 141.245 42.1378 141.159 42.2975V44.5745C141.245 44.7204 141.364 44.8339 141.512 44.9112C141.66 44.9885 141.845 45.0259 142.062 45.0259C142.4 45.0259 142.65 44.8937 142.808 44.6281C142.968 44.3625 143.045 44.0009 143.045 43.5482V43.4459H143.046Z" fill="#404041"/>
<path d="M148.82 6.08567C148.82 4.4309 149.362 3.03674 150.449 1.90322C151.536 0.769689 152.855 0.202301 154.409 0.202301C155.957 0.202301 157.277 0.769689 158.365 1.90322C159.454 3.03799 160 4.43214 160 6.08567C160 7.74544 159.454 9.14458 158.363 10.2843C157.271 11.4241 155.954 11.994 154.411 11.994C152.857 11.994 151.537 11.4241 150.45 10.2843C149.363 9.14458 148.82 7.74544 148.82 6.08567ZM149.778 6.08567C149.778 7.47234 150.228 8.63954 151.129 9.58726C152.029 10.535 153.122 11.0089 154.408 11.0089C155.688 11.0089 156.777 10.535 157.68 9.58726C158.579 8.63954 159.029 7.47234 159.029 6.08567C159.029 4.70524 158.579 3.54303 157.68 2.60029C156.777 1.65756 155.688 1.18619 154.408 1.18619C153.117 1.18619 152.023 1.65756 151.124 2.60029C150.227 3.54303 149.778 4.70524 149.778 6.08567ZM153.275 6.68424V9.33911H152.086V2.64394H154.297C155.09 2.64394 155.716 2.82226 156.172 3.1789C156.628 3.53555 156.857 4.04557 156.857 4.70773C156.857 5.012 156.78 5.27886 156.628 5.50706C156.476 5.73526 156.251 5.93104 155.959 6.0944C156.263 6.25152 156.486 6.47349 156.623 6.7603C156.762 7.04711 156.832 7.38381 156.832 7.77287V8.21431C156.832 8.43004 156.842 8.62333 156.86 8.79292C156.878 8.96376 156.913 9.10467 156.965 9.21441V9.34036H155.745C155.699 9.23062 155.669 9.06851 155.659 8.85527C155.649 8.64328 155.643 8.4263 155.643 8.20558V7.78035C155.643 7.4075 155.556 7.13191 155.379 6.95359C155.203 6.77402 154.917 6.68548 154.519 6.68548H153.275V6.68424ZM153.275 5.62927H154.338C154.711 5.62927 155.028 5.55071 155.287 5.39359C155.546 5.23646 155.677 5.00951 155.677 4.71646C155.677 4.33862 155.575 4.07301 155.37 3.92087C155.166 3.76874 154.808 3.69267 154.3 3.69267H153.278V5.62927H153.275Z" fill="#404041"/>
</svg>
